<?xml version="1.0" standalone="no"?>
<!DOCTYPE svg PUBLIC "-//W3C//DTD SVG 20010904//EN"
 "http://www.w3.org/TR/2001/REC-SVG-20010904/DTD/svg10.dtd">
<svg version="1.0" xmlns="http://www.w3.org/2000/svg"
 width="1600.000000pt" height="1131.000000pt" viewBox="0 0 1600.000000 1131.000000"
 preserveAspectRatio="xMidYMid meet">
<metadata>
Created by potrace 1.16, written by Peter Selinger 2001-2019
</metadata>
<g transform="translate(0.000000,1131.000000) scale(0.100000,-0.100000)"
fill="#000000" stroke="none">
<path d="M5906 6755 c-104 -29 -136 -78 -136 -206 0 -135 47 -292 183 -619 83
-200 130 -346 163 -507 22 -107 25 -147 22 -248 -3 -105 -7 -128 -32 -180 -33
-74 -57 -100 -118 -131 -154 -78 -363 -31 -500 114 -66 70 -131 167 -143 212
-4 19 8 50 49 125 67 123 120 259 142 367 22 110 15 329 -16 443 -38 141 -93
239 -190 335 -130 130 -270 199 -474 235 -244 42 -440 1 -809 -170 -288 -133
-431 -168 -598 -145 -163 22 -354 81 -649 200 -136 55 -313 115 -400 134 -92
21 -266 23 -331 3 -170 -52 -240 -227 -139 -349 62 -75 217 -103 358 -64 137
37 262 33 330 -11 78 -51 114 -141 92 -233 -25 -103 -103 -169 -202 -170 -54
0 -261 40 -363 70 -101 30 -247 37 -313 16 -114 -38 -148 -155 -67 -231 76
-72 309 -116 505 -95 224 25 294 24 372 -1 163 -52 283 -176 344 -356 31 -89
38 -213 16 -276 -29 -80 -105 -136 -188 -137 -108 0 -199 55 -379 229 -249
242 -371 312 -543 314 -170 1 -323 -82 -509 -277 -78 -82 -243 -299 -259 -340
-14 -38 18 -11 62 51 90 126 210 230 341 297 162 82 397 78 613 -11 95 -39
304 -147 388 -200 102 -66 293 -151 374 -167 145 -30 299 -14 399 41 69 37
143 120 170 191 27 70 35 188 19 266 -41 197 -210 374 -421 441 -169 53 -367
55 -579 6 -143 -33 -296 -45 -392 -31 -46 6 -97 18 -114 25 -71 29 -97 117
-52 170 49 56 225 48 467 -21 245 -70 442 -47 564 66 117 107 128 295 24 407
-49 53 -94 78 -179 98 -122 29 -227 16 -418 -51 -152 -53 -226 -48 -287 18
-29 31 -43 70 -43 123 0 133 200 188 445 121 91 -25 324 -104 501 -171 83 -31
321 -99 404 -116 35 -7 104 -10 163 -7 90 4 119 10 247 55 80 28 208 78 285
110 191 82 272 108 394 129 187 30 309 5 454 -95 316 -219 521 -724 441 -1084
-16 -73 -61 -187 -73 -187 -4 0 -29 67 -55 149 -109 340 -225 510 -412 605
-120 61 -206 79 -389 80 -187 1 -238 -10 -384 -80 -168 -82 -279 -222 -317
-404 -19 -89 -14 -243 11 -335 80 -293 342 -491 697 -525 285 -28 524 48 669
213 l36 41 54 -48 c71 -62 230 -140 344 -167 284 -68 631 39 726 224 36 69 52
155 45 239 -15 182 -86 378 -271 748 -183 365 -222 473 -213 593 5 68 22 88
88 108 50 15 94 6 160 -34 223 -134 407 -644 495 -1377 9 -74 23 -160 31 -190
46 -164 187 -291 357 -320 186 -33 419 86 498 255 76 161 38 381 -136 790
-148 348 -191 496 -183 635 4 65 10 88 34 127 54 88 175 125 341 104 160 -19
244 -65 290 -158 26 -54 28 -66 27 -178 -1 -141 -18 -248 -81 -520 -70 -298
-64 -360 43 -454 98 -86 254 -135 429 -135 200 0 366 83 421 212 26 61 20 142
-24 327 -78 321 -91 425 -72 560 35 244 196 373 440 350 155 -15 268 -69 317
-152 26 -44 28 -56 28 -148 0 -90 -4 -112 -39 -214 -21 -62 -85 -206 -141
-320 -165 -332 -190 -413 -190 -611 1 -115 4 -143 23 -190 88 -223 370 -344
596 -256 106 41 170 84 321 221 163 147 238 191 358 208 62 9 93 8 170 -6 199
-35 322 -86 628 -262 273 -156 407 -202 570 -192 239 15 395 155 416 374 19
202 -114 427 -313 530 -135 70 -198 85 -374 90 -161 5 -165 5 -420 -52 -103
-24 -287 -24 -362 -2 -31 9 -70 29 -87 43 -60 50 -47 134 25 169 51 24 166 15
344 -26 249 -58 270 -61 370 -56 175 9 279 64 338 177 32 61 34 70 30 150 -7
168 -87 250 -282 288 -97 19 -148 12 -360 -53 -81 -25 -163 -45 -180 -45 -40
0 -114 38 -138 70 -23 33 -37 107 -26 147 10 40 61 80 124 99 60 18 182 18
259 -1 74 -17 291 -91 530 -179 214 -79 384 -125 509 -136 241 -23 723 58
1239 209 181 53 328 83 375 77 134 -18 220 -142 191 -276 -32 -151 -156 -178
-415 -92 -202 68 -290 86 -424 87 -119 0 -128 -1 -183 -29 -211 -107 -238
-394 -46 -490 86 -42 135 -37 367 39 242 79 307 95 400 95 82 0 125 -15 164
-56 35 -38 48 -74 48 -133 0 -61 -26 -97 -81 -111 -51 -14 -108 -6 -241 36
-150 46 -223 57 -347 51 -172 -8 -311 -69 -431 -187 -93 -93 -134 -161 -161
-270 -73 -286 96 -515 397 -537 159 -11 294 31 553 175 302 167 450 226 629
252 141 21 298 -13 435 -93 90 -53 230 -191 277 -275 19 -34 41 -62 48 -62 19
0 16 8 -36 101 -90 160 -224 310 -365 410 -89 63 -125 82 -213 110 -165 55
-361 8 -547 -130 -29 -21 -110 -92 -180 -159 -180 -168 -274 -212 -389 -178
-103 30 -158 114 -166 252 -5 99 8 163 52 260 69 148 191 235 341 242 74 4 91
0 205 -39 215 -73 361 -65 452 24 68 66 89 177 49 262 -23 50 -53 78 -116 107
-45 20 -65 23 -185 23 -144 -1 -124 3 -515 -97 -138 -35 -197 -38 -242 -15
-94 49 -78 203 26 256 80 41 231 45 470 11 246 -34 394 -22 489 40 90 58 122
114 122 213 -1 81 -26 137 -82 177 -63 46 -104 61 -193 68 -112 10 -194 -2
-379 -54 -89 -25 -231 -65 -316 -89 -602 -171 -951 -218 -1215 -167 -98 20
-291 86 -470 162 -161 68 -363 139 -457 161 -121 28 -280 30 -361 6 -105 -32
-176 -121 -177 -220 -1 -167 184 -248 423 -186 121 32 219 30 291 -5 74 -36
108 -86 114 -165 11 -158 -90 -262 -241 -248 -34 4 -134 25 -222 48 -148 39
-170 43 -295 43 -111 1 -141 -2 -167 -17 -66 -36 -84 -130 -37 -187 78 -91
339 -148 559 -120 168 21 214 23 277 10 189 -36 352 -195 412 -399 18 -62 21
-188 5 -244 -12 -46 -68 -110 -109 -127 -18 -7 -59 -11 -103 -9 -65 4 -81 9
-146 48 -46 27 -122 91 -209 175 -75 72 -164 152 -197 177 -196 151 -411 182
-596 88 -65 -33 -152 -115 -272 -256 -125 -148 -184 -199 -275 -241 -125 -57
-290 -19 -340 78 -60 116 8 318 232 693 52 88 102 180 111 205 26 74 31 218
10 304 -58 238 -228 423 -474 517 -59 22 -84 25 -226 27 -144 3 -167 1 -230
-20 -128 -41 -212 -93 -311 -191 -76 -75 -99 -105 -135 -179 -42 -85 -44 -93
-43 -175 1 -98 24 -192 92 -376 24 -66 55 -149 68 -185 31 -86 32 -177 3 -230
-62 -110 -262 -114 -355 -8 -77 87 -78 184 -5 423 29 94 59 216 68 272 16 95
16 107 0 179 -40 183 -157 335 -317 412 -100 48 -179 68 -310 77 -181 13 -334
-42 -464 -165 -82 -79 -127 -149 -169 -263 -28 -75 -31 -93 -31 -212 -1 -166
12 -206 139 -420 183 -307 245 -450 245 -565 0 -78 -21 -123 -74 -159 -131
-90 -276 -77 -374 34 -54 61 -77 126 -112 310 -106 557 -214 949 -318 1160
-68 138 -165 253 -241 287 -56 26 -143 31 -205 13z m-1321 -690 c192 -50 317
-245 446 -690 22 -77 59 -178 80 -225 l40 -85 -53 -50 c-30 -28 -88 -68 -129
-90 -70 -37 -79 -40 -181 -43 -128 -5 -175 8 -280 77 -242 159 -420 534 -378
796 28 179 130 285 301 314 79 13 89 13 154 -4z" />
</g>
</svg>
